# xmcd CD database file
#
# Track frame offsets:
#	182
#	12885
#	27702
#	43782
#	61017
#	76202
#	91360
#	107330
#	123112
#	136527
#	156625
#	173075
#	185295
#
# Disc length: 2627 seconds
#
# Revision: 7
# Processed by: cddbd v1.5PL3 Copyright (c) Steve Scherf et al.
# Submitted via: CDex 1.51
#
DISCID=980a410d
DTITLE=Trick Pony - Trick Pony
DYEAR=2001
DGENRE=Country
TTITLE0=Pour Me
TTITLE1=Party Of One
TTITLE2=Big River (With Johnny Cash and Waylon Jennings)
TTITLE3=Every Other Memory
TTITLE4=More Like Me
TTITLE5=Just What I Do
TTITLE6=Stay In This Moment
TTITLE7=On A Night Like This
TTITLE8=One In A Row
TTITLE9=Now Would Be The Time
TTITLE10=Can't Say That On The Radio
TTITLE11=Spent
TTITLE12=Not Hidden Track
EXTD=YEAR: 2001
EXTT0=
EXTT1=
EXTT2=
EXTT3=
EXTT4=
EXTT5=
EXTT6=
EXTT7=
EXTT8=
EXTT9=
EXTT10=
EXTT11=
EXTT12=
PLAYORDER=
